<svg width="91" height="29" viewBox="0 0 91 29" fill="none" xmlns="http://www.w3.org/2000/svg">
<path d="M0 0V29H91V0H0ZM90.4658 28.4727H53.2644L65.0712 22.163C65.3205 22.4794 65.5877 22.7782 65.8548 23.077C68.0986 25.4321 71.2685 26.8909 74.7945 26.8909C77.911 26.8909 80.7603 25.7309 82.9329 23.8327C83.4849 23.3406 84.0014 22.8133 84.4644 22.2333C85.3904 21.0558 86.1206 19.72 86.5658 18.2612C86.9041 17.1539 87.0822 15.9764 87.0822 14.7636C87.0822 14.6758 87.0822 14.5879 87.0822 14.5176C87.011 11.143 85.5329 8.10242 83.2178 5.94061C82.6836 5.44848 82.0959 4.99152 81.4726 4.58727C79.5493 3.35697 77.2521 2.63636 74.7945 2.63636C71.6247 2.63636 68.7397 3.83152 66.5493 5.78242C66.2288 6.06364 65.926 6.36242 65.6411 6.67879C63.7534 8.75273 62.5781 11.4945 62.5069 14.4824C62.5069 14.5703 62.5069 14.6758 62.5069 14.7636C62.5069 15.1327 62.5247 15.5194 62.5603 15.8885C62.6849 17.2594 63.0411 18.56 63.5932 19.7552L47.2808 28.4727H0.534247V0.527273H90.4658V28.4727ZM65.4986 11.2836C65.3205 10.9673 65.0712 10.7915 64.7329 10.7212C65.2315 9.50848 65.9616 8.40121 66.8699 7.45212C67.2082 7.69818 67.5288 7.97939 67.8493 8.29576C69.5233 9.94788 70.3603 11.9515 70.3603 14.2715C70.3603 16.5915 69.5233 18.5951 67.8493 20.2297C67.3685 20.7042 66.8521 21.1085 66.3178 21.46C65.1425 20.0012 64.3411 18.2436 64.0562 16.3279C64.3233 16.4509 64.5904 16.5915 64.8397 16.7321C65.7658 17.3121 66.4425 18.0855 66.8699 19.0345L68.0986 18.5952C67.5822 17.3648 66.7452 16.363 65.5877 15.5897C65.0712 15.2382 64.5192 14.9745 63.9493 14.7988V14.7636C63.9493 14.1661 64.0027 13.5861 64.0918 13.0236C64.1986 13.0588 64.3233 13.0764 64.4658 13.0764C64.911 13.0764 65.2493 12.883 65.4986 12.5139C65.6055 12.3382 65.6767 12.1273 65.6767 11.8988C65.6589 11.6703 65.6055 11.4594 65.4986 11.2836ZM83.2534 12.5139C83.4849 12.9006 83.8233 13.0764 84.2863 13.0764C84.7671 13.0764 85.1055 12.8655 85.3548 12.4612C85.3726 12.4436 85.3726 12.4261 85.3904 12.3909C85.5685 13.1467 85.6575 13.9552 85.6575 14.7636C85.6575 15.7479 85.5151 16.7145 85.2658 17.6109C84.2329 18.5248 83.0041 18.9642 81.5795 18.9642C80.0301 18.9642 78.7301 18.437 77.626 17.3648C76.5397 16.2927 75.9877 14.9921 75.9877 13.463H74.6164C74.6164 15.3612 75.2932 16.9782 76.6644 18.3139C78.0356 19.6497 79.6562 20.3351 81.5795 20.3351C82.5945 20.3351 83.5384 20.1418 84.3932 19.7727C83.8055 20.8624 83.0219 21.8467 82.1137 22.6727C81.9534 22.6727 81.7932 22.6903 81.6329 22.6903C79.2822 22.6903 77.2521 21.8642 75.5781 20.2121C73.9041 18.56 73.0671 16.5739 73.0671 14.2539C73.0671 11.9339 73.9041 9.94788 75.5781 8.27818C77.0562 6.81939 78.7836 6.01091 80.7959 5.83515C82.6301 7.04788 84.0726 8.78788 84.8918 10.8267C84.7137 10.7388 84.5178 10.6861 84.2863 10.6861C83.8233 10.6861 83.4671 10.8794 83.2356 11.2836C83.1288 11.4594 83.0753 11.6703 83.0753 11.8988C83.0753 12.1273 83.1466 12.3206 83.2534 12.5139ZM74.7233 7.41697C72.8 9.31515 71.8562 11.5824 71.8562 14.2539C71.8562 16.9079 72.8178 19.1927 74.7233 21.0909C76.3616 22.7255 78.3027 23.6394 80.5466 23.8679C78.8726 24.9048 76.9137 25.4848 74.8123 25.4848C71.8205 25.4848 69.1137 24.2897 67.1548 22.3564C67.7069 21.9873 68.2233 21.5655 68.7219 21.0733C70.6452 19.1752 71.589 16.9079 71.589 14.2364C71.589 11.5648 70.6274 9.29757 68.7219 7.39939C68.4192 7.10061 68.0986 6.81939 67.7781 6.57333C69.6658 5.00909 72.1233 4.04242 74.7945 4.04242C76.3082 4.04242 77.7507 4.34121 79.0507 4.90364C77.4301 5.32545 75.9877 6.16909 74.7233 7.41697ZM80.0301 11.2836C79.8164 10.897 79.4603 10.6861 78.9795 10.6861C78.5164 10.6861 78.1781 10.8794 77.9466 11.2661C77.8397 11.4418 77.7863 11.6527 77.7863 11.8812C77.7863 12.0921 77.8397 12.2855 77.9466 12.4788C78.1603 12.8655 78.5164 13.0764 78.9795 13.0764C79.4603 13.0764 79.8164 12.883 80.0301 12.4788C80.137 12.303 80.1904 12.0921 80.1904 11.8812C80.1904 11.6703 80.137 11.4594 80.0301 11.2836ZM80.0301 11.2836C79.8164 10.897 79.4603 10.6861 78.9795 10.6861C78.5164 10.6861 78.1781 10.8794 77.9466 11.2661C77.8397 11.4418 77.7863 11.6527 77.7863 11.8812C77.7863 12.0921 77.8397 12.2855 77.9466 12.4788C78.1603 12.8655 78.5164 13.0764 78.9795 13.0764C79.4603 13.0764 79.8164 12.883 80.0301 12.4788C80.137 12.303 80.1904 12.0921 80.1904 11.8812C80.1904 11.6703 80.137 11.4594 80.0301 11.2836ZM80.0301 11.2836C79.8164 10.897 79.4603 10.6861 78.9795 10.6861C78.5164 10.6861 78.1781 10.8794 77.9466 11.2661C77.8397 11.4418 77.7863 11.6527 77.7863 11.8812C77.7863 12.0921 77.8397 12.2855 77.9466 12.4788C78.1603 12.8655 78.5164 13.0764 78.9795 13.0764C79.4603 13.0764 79.8164 12.883 80.0301 12.4788C80.137 12.303 80.1904 12.0921 80.1904 11.8812C80.1904 11.6703 80.137 11.4594 80.0301 11.2836ZM80.0301 11.2836C79.8164 10.897 79.4603 10.6861 78.9795 10.6861C78.5164 10.6861 78.1781 10.8794 77.9466 11.2661C77.8397 11.4418 77.7863 11.6527 77.7863 11.8812C77.7863 12.0921 77.8397 12.2855 77.9466 12.4788C78.1603 12.8655 78.5164 13.0764 78.9795 13.0764C79.4603 13.0764 79.8164 12.883 80.0301 12.4788C80.137 12.303 80.1904 12.0921 80.1904 11.8812C80.1904 11.6703 80.137 11.4594 80.0301 11.2836ZM80.0301 11.2836C79.8164 10.897 79.4603 10.6861 78.9795 10.6861C78.5164 10.6861 78.1781 10.8794 77.9466 11.2661C77.8397 11.4418 77.7863 11.6527 77.7863 11.8812C77.7863 12.0921 77.8397 12.2855 77.9466 12.4788C78.1603 12.8655 78.5164 13.0764 78.9795 13.0764C79.4603 13.0764 79.8164 12.883 80.0301 12.4788C80.137 12.303 80.1904 12.0921 80.1904 11.8812C80.1904 11.6703 80.137 11.4594 80.0301 11.2836ZM80.0301 11.2836C79.8164 10.897 79.4603 10.6861 78.9795 10.6861C78.5164 10.6861 78.1781 10.8794 77.9466 11.2661C77.8397 11.4418 77.7863 11.6527 77.7863 11.8812C77.7863 12.0921 77.8397 12.2855 77.9466 12.4788C78.1603 12.8655 78.5164 13.0764 78.9795 13.0764C79.4603 13.0764 79.8164 12.883 80.0301 12.4788C80.137 12.303 80.1904 12.0921 80.1904 11.8812C80.1904 11.6703 80.137 11.4594 80.0301 11.2836ZM80.0301 11.2836C79.8164 10.897 79.4603 10.6861 78.9795 10.6861C78.5164 10.6861 78.1781 10.8794 77.9466 11.2661C77.8397 11.4418 77.7863 11.6527 77.7863 11.8812C77.7863 12.0921 77.8397 12.2855 77.9466 12.4788C78.1603 12.8655 78.5164 13.0764 78.9795 13.0764C79.4603 13.0764 79.8164 12.883 80.0301 12.4788C80.137 12.303 80.1904 12.0921 80.1904 11.8812C80.1904 11.6703 80.137 11.4594 80.0301 11.2836ZM80.0301 11.2836C79.8164 10.897 79.4603 10.6861 78.9795 10.6861C78.5164 10.6861 78.1781 10.8794 77.9466 11.2661C77.8397 11.4418 77.7863 11.6527 77.7863 11.8812C77.7863 12.0921 77.8397 12.2855 77.9466 12.4788C78.1603 12.8655 78.5164 13.0764 78.9795 13.0764C79.4603 13.0764 79.8164 12.883 80.0301 12.4788C80.137 12.303 80.1904 12.0921 80.1904 11.8812C80.1904 11.6703 80.137 11.4594 80.0301 11.2836ZM80.0301 11.2836C79.8164 10.897 79.4603 10.6861 78.9795 10.6861C78.5164 10.6861 78.1781 10.8794 77.9466 11.2661C77.8397 11.4418 77.7863 11.6527 77.7863 11.8812C77.7863 12.0921 77.8397 12.2855 77.9466 12.4788C78.1603 12.8655 78.5164 13.0764 78.9795 13.0764C79.4603 13.0764 79.8164 12.883 80.0301 12.4788C80.137 12.303 80.1904 12.0921 80.1904 11.8812C80.1904 11.6703 80.137 11.4594 80.0301 11.2836ZM80.0301 11.2836C79.8164 10.897 79.4603 10.6861 78.9795 10.6861C78.5164 10.6861 78.1781 10.8794 77.9466 11.2661C77.8397 11.4418 77.7863 11.6527 77.7863 11.8812C77.7863 12.0921 77.8397 12.2855 77.9466 12.4788C78.1603 12.8655 78.5164 13.0764 78.9795 13.0764C79.4603 13.0764 79.8164 12.883 80.0301 12.4788C80.137 12.303 80.1904 12.0921 80.1904 11.8812C80.1904 11.6703 80.137 11.4594 80.0301 11.2836ZM80.0301 11.2836C79.8164 10.897 79.4603 10.6861 78.9795 10.6861C78.5164 10.6861 78.1781 10.8794 77.9466 11.2661C77.8397 11.4418 77.7863 11.6527 77.7863 11.8812C77.7863 12.0921 77.8397 12.2855 77.9466 12.4788C78.1603 12.8655 78.5164 13.0764 78.9795 13.0764C79.4603 13.0764 79.8164 12.883 80.0301 12.4788C80.137 12.303 80.1904 12.0921 80.1904 11.8812C80.1904 11.6703 80.137 11.4594 80.0301 11.2836ZM80.0301 11.2836C79.8164 10.897 79.4603 10.6861 78.9795 10.6861C78.5164 10.6861 78.1781 10.8794 77.9466 11.2661C77.8397 11.4418 77.7863 11.6527 77.7863 11.8812C77.7863 12.0921 77.8397 12.2855 77.9466 12.4788C78.1603 12.8655 78.5164 13.0764 78.9795 13.0764C79.4603 13.0764 79.8164 12.883 80.0301 12.4788C80.137 12.303 80.1904 12.0921 80.1904 11.8812C80.1904 11.6703 80.137 11.4594 80.0301 11.2836ZM80.0301 11.2836C79.8164 10.897 79.4603 10.6861 78.9795 10.6861C78.5164 10.6861 78.1781 10.8794 77.9466 11.2661C77.8397 11.4418 77.7863 11.6527 77.7863 11.8812C77.7863 12.0921 77.8397 12.2855 77.9466 12.4788C78.1603 12.8655 78.5164 13.0764 78.9795 13.0764C79.4603 13.0764 79.8164 12.883 80.0301 12.4788C80.137 12.303 80.1904 12.0921 80.1904 11.8812C80.1904 11.6703 80.137 11.4594 80.0301 11.2836ZM80.0301 11.2836C79.8164 10.897 79.4603 10.6861 78.9795 10.6861C78.5164 10.6861 78.1781 10.8794 77.9466 11.2661C77.8397 11.4418 77.7863 11.6527 77.7863 11.8812C77.7863 12.0921 77.8397 12.2855 77.9466 12.4788C78.1603 12.8655 78.5164 13.0764 78.9795 13.0764C79.4603 13.0764 79.8164 12.883 80.0301 12.4788C80.137 12.303 80.1904 12.0921 80.1904 11.8812C80.1904 11.6703 80.137 11.4594 80.0301 11.2836ZM80.0301 11.2836C79.8164 10.897 79.4603 10.6861 78.9795 10.6861C78.5164 10.6861 78.1781 10.8794 77.9466 11.2661C77.8397 11.4418 77.7863 11.6527 77.7863 11.8812C77.7863 12.0921 77.8397 12.2855 77.9466 12.4788C78.1603 12.8655 78.5164 13.0764 78.9795 13.0764C79.4603 13.0764 79.8164 12.883 80.0301 12.4788C80.137 12.303 80.1904 12.0921 80.1904 11.8812C80.1904 11.6703 80.137 11.4594 80.0301 11.2836ZM80.0301 11.2836C79.8164 10.897 79.4603 10.6861 78.9795 10.6861C78.5164 10.6861 78.1781 10.8794 77.9466 11.2661C77.8397 11.4418 77.7863 11.6527 77.7863 11.8812C77.7863 12.0921 77.8397 12.2855 77.9466 12.4788C78.1603 12.8655 78.5164 13.0764 78.9795 13.0764C79.4603 13.0764 79.8164 12.883 80.0301 12.4788C80.137 12.303 80.1904 12.0921 80.1904 11.8812C80.1904 11.6703 80.137 11.4594 80.0301 11.2836ZM80.0301 11.2836C79.8164 10.897 79.4603 10.6861 78.9795 10.6861C78.5164 10.6861 78.1781 10.8794 77.9466 11.2661C77.8397 11.4418 77.7863 11.6527 77.7863 11.8812C77.7863 12.0921 77.8397 12.2855 77.9466 12.4788C78.1603 12.8655 78.5164 13.0764 78.9795 13.0764C79.4603 13.0764 79.8164 12.883 80.0301 12.4788C80.137 12.303 80.1904 12.0921 80.1904 11.8812C80.1904 11.6703 80.137 11.4594 80.0301 11.2836ZM80.0301 11.2836C79.8164 10.897 79.4603 10.6861 78.9795 10.6861C78.5164 10.6861 78.1781 10.8794 77.9466 11.2661C77.8397 11.4418 77.7863 11.6527 77.7863 11.8812C77.7863 12.0921 77.8397 12.2855 77.9466 12.4788C78.1603 12.8655 78.5164 13.0764 78.9795 13.0764C79.4603 13.0764 79.8164 12.883 80.0301 12.4788C80.137 12.303 80.1904 12.0921 80.1904 11.8812C80.1904 11.6703 80.137 11.4594 80.0301 11.2836ZM80.0301 11.2836C79.8164 10.897 79.4603 10.6861 78.9795 10.6861C78.5164 10.6861 78.1781 10.8794 77.9466 11.2661C77.8397 11.4418 77.7863 11.6527 77.7863 11.8812C77.7863 12.0921 77.8397 12.2855 77.9466 12.4788C78.1603 12.8655 78.5164 13.0764 78.9795 13.0764C79.4603 13.0764 79.8164 12.883 80.0301 12.4788C80.137 12.303 80.1904 12.0921 80.1904 11.8812C80.1904 11.6703 80.137 11.4594 80.0301 11.2836ZM5.59178 13.5685V5.8H7.17671V13.5861H5.59178V13.5685ZM13.8904 13.5685H12.3767V10.7036C12.3767 10.0885 12.3411 9.70182 12.2877 9.52606C12.2164 9.3503 12.1096 9.2097 11.9671 9.10424C11.8247 8.99879 11.6466 8.96364 11.4507 8.96364C11.1836 8.96364 10.9521 9.03394 10.7384 9.17455C10.5247 9.31515 10.3822 9.50848 10.311 9.73697C10.2397 9.96546 10.2041 10.4048 10.2041 11.0376V13.5861H8.69041V7.94424H10.0973V8.7703C10.5959 8.13758 11.2192 7.82121 11.9849 7.82121C12.3233 7.82121 12.626 7.87394 12.8932 7.99697C13.1781 8.12 13.374 8.26061 13.5164 8.45394C13.6589 8.6297 13.7479 8.84061 13.8192 9.08667C13.8726 9.31515 13.9082 9.64909 13.9082 10.0885V13.5685H13.8904ZM14.8877 11.9691L16.4014 11.7406C16.4726 12.0394 16.5973 12.2503 16.7932 12.4085C16.989 12.5667 17.274 12.637 17.6301 12.637C18.0219 12.637 18.3069 12.5667 18.5205 12.4261C18.6452 12.3206 18.7164 12.1976 18.7164 12.0218C18.7164 11.9164 18.6808 11.8109 18.6096 11.7406C18.5384 11.6703 18.3603 11.6 18.111 11.5473C16.9 11.2836 16.1164 11.0376 15.7959 10.8267C15.3507 10.5279 15.1192 10.1061 15.1192 9.56121C15.1192 9.06909 15.3151 8.66485 15.7068 8.33091C16.0986 7.99697 16.7041 7.83879 17.5233 7.83879C18.3069 7.83879 18.8945 7.96182 19.2685 8.20788C19.6425 8.45394 19.9096 8.82303 20.0521 9.31515L18.6274 9.57879C18.574 9.36788 18.4493 9.19212 18.289 9.06909C18.111 8.94606 17.8795 8.89333 17.5589 8.89333C17.1671 8.89333 16.8822 8.94606 16.7041 9.05151C16.5973 9.12182 16.526 9.22727 16.526 9.3503C16.526 9.45576 16.5795 9.54364 16.6685 9.61394C16.811 9.71939 17.274 9.86 18.0753 10.0358C18.8767 10.2115 19.4466 10.44 19.7671 10.7036C20.0877 10.9673 20.2479 11.3364 20.2479 11.8109C20.2479 12.3206 20.0342 12.7776 19.589 13.1467C19.1438 13.5158 18.5027 13.7091 17.6479 13.7091C16.8644 13.7091 16.2589 13.5509 15.7959 13.2345C15.3329 12.9182 15.0301 12.4964 14.8877 11.9691ZM21.4945 7.94424H22.9014V8.7703C23.0795 8.48909 23.3288 8.26061 23.6493 8.08485C23.9699 7.90909 24.3082 7.82121 24.6822 7.82121C25.3411 7.82121 25.911 8.08485 26.374 8.59455C26.837 9.10424 27.0685 9.82485 27.0685 10.7388C27.0685 11.6879 26.837 12.4085 26.374 12.9358C25.911 13.463 25.3411 13.7267 24.6822 13.7267C24.3616 13.7267 24.0767 13.6564 23.8274 13.5333C23.5781 13.4103 23.2932 13.1994 23.026 12.9006V15.7479H21.5123V7.94424H21.4945ZM22.9904 10.6685C22.9904 11.3012 23.1151 11.7758 23.3644 12.0745C23.6137 12.3733 23.9342 12.5315 24.2904 12.5315C24.6466 12.5315 24.9315 12.3909 25.163 12.1097C25.3945 11.8285 25.5192 11.3715 25.5192 10.7388C25.5192 10.1412 25.3945 9.70182 25.163 9.42061C24.9315 9.13939 24.6288 8.99879 24.2726 8.99879C23.8986 8.99879 23.5959 9.13939 23.3466 9.42061C23.1151 9.70182 22.9904 10.1061 22.9904 10.6685ZM31.574 11.7758L33.0877 12.0218C32.8918 12.5667 32.589 12.9885 32.1795 13.2697C31.7699 13.5509 31.2356 13.6915 30.6123 13.6915C29.6151 13.6915 28.8849 13.3752 28.4041 12.7248C28.0301 12.2152 27.8342 11.5648 27.8342 10.7739C27.8342 9.84242 28.0836 9.10424 28.5822 8.57697C29.0808 8.0497 29.7041 7.78606 30.4521 7.78606C31.3069 7.78606 31.9658 8.06727 32.4644 8.61212C32.963 9.17455 33.1945 10.0182 33.1767 11.1606H29.3836C29.4014 11.6 29.5082 11.9515 29.7575 12.1976C30.0069 12.4436 30.274 12.5667 30.6301 12.5667C30.8616 12.5667 31.0575 12.4964 31.2356 12.3733C31.4137 12.2503 31.5027 12.0745 31.574 11.7758ZM31.663 10.2818C31.6452 9.84242 31.5384 9.52606 31.3247 9.29758C31.111 9.06909 30.8438 8.96364 30.5411 8.96364C30.2027 8.96364 29.9356 9.08667 29.7219 9.31515C29.5082 9.54364 29.4014 9.87758 29.4014 10.2818H31.663ZM39.374 9.61394L37.8781 9.87758C37.8247 9.57879 37.7178 9.36788 37.5397 9.2097C37.3616 9.05152 37.1301 8.98121 36.8452 8.98121C36.4712 8.98121 36.1685 9.10424 35.937 9.36788C35.7055 9.63151 35.5986 10.0533 35.5986 10.6509C35.5986 11.3188 35.7055 11.7933 35.937 12.0745C36.1685 12.3558 36.4712 12.4964 36.8452 12.4964C37.1301 12.4964 37.3616 12.4085 37.5575 12.2503C37.7356 12.0921 37.8781 11.8109 37.9493 11.4242L39.4274 11.6703C39.2671 12.3382 38.9822 12.8479 38.537 13.1994C38.0918 13.5509 37.5219 13.7091 36.774 13.7091C35.937 13.7091 35.2781 13.4455 34.7795 12.9358C34.2808 12.4085 34.0315 11.6879 34.0315 10.7739C34.0315 9.84242 34.2808 9.12182 34.7795 8.59455C35.2781 8.08485 35.9548 7.82121 36.8096 7.82121C37.5041 7.82121 38.0562 7.96182 38.4658 8.26061C38.911 8.55939 39.1959 8.99879 39.374 9.61394ZM43.1493 7.94424V9.13939H42.1164V11.4067C42.1164 11.8636 42.1342 12.1273 42.1521 12.2152C42.1699 12.2855 42.2233 12.3558 42.2945 12.4085C42.3658 12.4612 42.4548 12.4788 42.5438 12.4788C42.6863 12.4788 42.8822 12.4261 43.1493 12.3382L43.274 13.4982C42.9178 13.6388 42.526 13.7267 42.0808 13.7267C41.8137 13.7267 41.5644 13.6739 41.3507 13.5861C41.137 13.4982 40.9767 13.3752 40.8699 13.2345C40.763 13.0939 40.6918 12.9006 40.6562 12.6545C40.6205 12.4788 40.6027 12.1273 40.6027 11.6V9.13939H39.9082V7.94424H40.6027V6.81939L42.1164 5.94061V7.92667H43.1493V7.94424ZM44.2 7.17091V5.8H45.7137V7.18849H44.2V7.17091ZM44.2 13.5685V7.94424H45.7137V13.5861H44.2V13.5685ZM46.9068 10.6861C46.9068 10.1939 47.0315 9.71939 47.2808 9.24485C47.5301 8.78788 47.8863 8.41879 48.3315 8.1903C48.7767 7.94424 49.2932 7.82121 49.8452 7.82121C50.7178 7.82121 51.4123 8.10242 51.9644 8.64727C52.5164 9.2097 52.8014 9.89515 52.8014 10.7388C52.8014 11.6 52.5164 12.303 51.9644 12.8655C51.4123 13.4279 50.7 13.7091 49.863 13.7091C49.3466 13.7091 48.8479 13.5861 48.3671 13.3576C47.8863 13.1291 47.5301 12.7776 47.2808 12.3382C47.0315 11.8812 46.9068 11.3188 46.9068 10.6861ZM48.4562 10.7564C48.4562 11.3188 48.5986 11.7406 48.8658 12.0394C49.1329 12.3382 49.4712 12.4788 49.863 12.4788C50.2548 12.4788 50.5932 12.3382 50.8603 12.0394C51.1274 11.7406 51.2521 11.3188 51.2521 10.7388C51.2521 10.1939 51.1096 9.75455 50.8603 9.47333C50.5932 9.17455 50.2548 9.03394 49.863 9.03394C49.4712 9.03394 49.1329 9.17455 48.8658 9.47333C48.5986 9.77212 48.4562 10.1939 48.4562 10.7564ZM59.1767 13.5685H57.663V10.7036C57.663 10.0885 57.6274 9.70182 57.574 9.52606C57.5205 9.3503 57.3959 9.2097 57.2534 9.10424C57.111 8.99879 56.9329 8.96364 56.737 8.96364C56.4699 8.96364 56.2384 9.03394 56.0247 9.17455C55.811 9.31515 55.6685 9.50848 55.5973 9.73697C55.526 9.96546 55.4904 10.4048 55.4904 11.0376V13.5861H53.9767V7.94424H55.3836V8.7703C55.8822 8.13758 56.5055 7.82121 57.2712 7.82121C57.6096 7.82121 57.9123 7.87394 58.1795 7.99697C58.4466 8.12 58.6603 8.26061 58.8027 8.45394C58.9452 8.6297 59.0342 8.84061 59.1055 9.08667C59.1589 9.31515 59.1945 9.64909 59.1945 10.0885V13.5685H59.1767ZM5.64521 23.5867V15.8182H8.99315C9.83014 15.8182 10.4534 15.8885 10.8274 16.0291C11.2014 16.1697 11.5219 16.4158 11.7356 16.7673C11.9671 17.1188 12.074 17.5406 12.074 17.9976C12.074 18.5776 11.8959 19.0697 11.5575 19.4388C11.2014 19.8255 10.6849 20.0539 9.99041 20.1594C10.3288 20.3527 10.6137 20.5812 10.8452 20.8097C11.0767 21.0382 11.3795 21.46 11.7534 22.0752L12.7151 23.5867H10.8274L9.66986 21.8994C9.26027 21.3018 8.97534 20.9152 8.83288 20.757C8.69041 20.5988 8.53014 20.4933 8.35206 20.4406C8.19178 20.3879 7.92466 20.3527 7.55069 20.3527H7.23014V23.6042H5.64521V23.5867ZM7.23014 19.1048H8.40548C9.17123 19.1048 9.65205 19.0697 9.83014 19.017C10.026 18.9467 10.1685 18.8412 10.2753 18.683C10.3822 18.5248 10.4356 18.3315 10.4356 18.103C10.4356 17.8394 10.3644 17.6285 10.2219 17.4703C10.0795 17.3121 9.88356 17.2067 9.61644 17.1715C9.49178 17.1539 9.1 17.1364 8.4589 17.1364H7.21233V19.1048H7.23014ZM16.9 21.7939L18.4137 22.04C18.2178 22.5848 17.9151 23.0067 17.5055 23.2879C17.0959 23.5691 16.5616 23.7097 15.9384 23.7097C14.9411 23.7097 14.211 23.3933 13.7301 22.743C13.3562 22.2333 13.1603 21.583 13.1603 20.7921C13.1603 19.8606 13.4096 19.1224 13.9082 18.5952C14.4068 18.0679 15.0301 17.8042 15.7781 17.8042C16.6329 17.8042 17.2918 18.0855 17.7904 18.6303C18.289 19.1927 18.5205 20.0364 18.5027 21.1788H14.6918C14.7096 21.6182 14.8164 21.9697 15.0658 22.2158C15.3151 22.4618 15.5822 22.5848 15.9384 22.5848C16.1699 22.5848 16.3658 22.5145 16.5438 22.3915C16.7219 22.2685 16.811 22.0927 16.9 21.7939ZM16.9712 20.3C16.9534 19.8606 16.8466 19.5442 16.6329 19.3158C16.4192 19.0873 16.1521 18.9818 15.8493 18.9818C15.511 18.9818 15.2438 19.1048 15.0301 19.3333C14.8164 19.5618 14.7096 19.8958 14.7096 20.3H16.9712ZM19.6603 17.9624H21.0671V18.7885C21.2452 18.5073 21.4945 18.2788 21.8151 18.103C22.1356 17.9273 22.474 17.8394 22.8479 17.8394C23.5069 17.8394 24.0767 18.103 24.5397 18.6127C25.0027 19.1224 25.2342 19.843 25.2342 20.757C25.2342 21.7061 25.0027 22.4267 24.5397 22.9539C24.0767 23.4812 23.5069 23.7448 22.8479 23.7448C22.5274 23.7448 22.2425 23.6745 21.9932 23.5515C21.7438 23.4285 21.4589 23.2176 21.1918 22.9188V25.7661H19.6781V17.9624H19.6603ZM21.1562 20.6867C21.1562 21.3194 21.2808 21.7939 21.5301 22.0927C21.7795 22.3915 22.1 22.5497 22.4562 22.5497C22.8123 22.5497 23.0973 22.4091 23.3288 22.1279C23.5603 21.8467 23.6849 21.3897 23.6849 20.757C23.6849 20.1594 23.5603 19.72 23.3288 19.4388C23.0973 19.1576 22.7945 19.017 22.4384 19.017C22.0644 19.017 21.7616 19.1576 21.5123 19.4388C21.2808 19.72 21.1562 20.1242 21.1562 20.6867ZM26.089 20.7042C26.089 20.2121 26.2137 19.7376 26.463 19.263C26.7123 18.8061 27.0685 18.437 27.5137 18.2085C27.9589 17.9624 28.4753 17.8394 29.0274 17.8394C29.9 17.8394 30.5945 18.1206 31.1466 18.6655C31.6986 19.2103 31.9836 19.9133 31.9836 20.757C31.9836 21.6182 31.6986 22.3212 31.1466 22.8836C30.5945 23.4461 29.8822 23.7273 29.0452 23.7273C28.5288 23.7273 28.0301 23.6042 27.5493 23.3758C27.0685 23.1473 26.7123 22.7958 26.463 22.3564C26.2137 21.917 26.089 21.337 26.089 20.7042ZM27.6384 20.7745C27.6384 21.337 27.7808 21.7588 28.0479 22.0576C28.3151 22.3564 28.6534 22.497 29.0452 22.497C29.437 22.497 29.7753 22.3564 30.0425 22.0576C30.3096 21.7588 30.4342 21.337 30.4342 20.757C30.4342 20.2121 30.2918 19.7727 30.0425 19.4915C29.7753 19.1927 29.437 19.0521 29.0452 19.0521C28.6534 19.0521 28.3151 19.1927 28.0479 19.4915C27.7808 19.7903 27.6384 20.2121 27.6384 20.7745ZM34.6192 23.5867H33.1055V17.9448H34.5123V18.7533C34.7438 18.3667 34.9753 18.1206 35.1534 17.9976C35.3493 17.8745 35.563 17.8218 35.8123 17.8218C36.1507 17.8218 36.489 17.9097 36.8096 18.103L36.3466 19.4036C36.0973 19.2455 35.8479 19.1576 35.6343 19.1576C35.4206 19.1576 35.2425 19.2103 35.1 19.3333C34.9575 19.4564 34.8329 19.6497 34.7616 19.9485C34.6726 20.2473 34.637 20.88 34.637 21.8467V23.5867H34.6192ZM40.0685 17.9624V19.1576H39.0356V21.4248C39.0356 21.8818 39.0534 22.1455 39.0712 22.2333C39.089 22.3036 39.1425 22.3739 39.2137 22.4267C39.2849 22.4794 39.374 22.497 39.463 22.497C39.6055 22.497 39.8014 22.4442 40.0685 22.3564L40.1932 23.5164C39.837 23.657 39.4452 23.7448 39 23.7448C38.7329 23.7448 38.4836 23.6921 38.2699 23.6042C38.0562 23.5164 37.8959 23.3933 37.789 23.2527C37.6822 23.1121 37.611 22.9188 37.5753 22.6727C37.5397 22.497 37.5219 22.1455 37.5219 21.6182V19.1576H36.8274V17.9624H37.5219V16.8376L39.0356 15.9588V17.9448H40.0685V17.9624Z" fill="white"/>
</svg>
